<svg height="479pt" viewBox="0 0 479.88557 479" width="479pt" xmlns="http://www.w3.org/2000/svg" xmlns:xlink="http://www.w3.org/1999/xlink"><linearGradient id="a" gradientUnits="userSpaceOnUse" x1="70.355137" x2="409.763137" y1="410.21139" y2="70.80339"><stop offset="0" stop-color="#41dfd0"/><stop offset="1" stop-color="#ee83ef"/></linearGradient><path d="m425.5 100.84375c-3.613281 2.539062-4.484375 7.519531-1.953125 11.136719 65.6875 93.878906 49.9375 222.191406-36.496094 297.398437-86.4375 75.210938-215.695312 73.070313-299.589843-4.960937l59.910156-59.910157h236.6875c13.253906 0 24-10.746093 24-24v-160c0-13.253906-10.746094-24-24-24h-28.6875l54.34375-54.34375c3.125-3.125 3.125-8.1875 0-11.3125l-.097656-.0625c-.109376-.121093-.148438-.28125-.261719-.402343-87.625-87.265625-227.21875-93.660157-322.457031-14.769531-95.234376 78.890624-114.933594 217.234374-45.503907 319.570312 1.585938 2.410156 4.351563 3.78125 7.230469 3.585938 2.878906-.199219 5.429688-1.929688 6.671875-4.535157 1.246094-2.605469.988281-5.679687-.667969-8.042969-63.828125-94.328124-46.710937-221.535156 39.78125-295.636718 86.492188-74.101563 214.820313-71.503906 298.242188 6.035156l-59.90625 59.914062h-24.40625l-29.601563-44.441406c-1.488281-2.230468-3.996093-3.566406-6.679687-3.558594h-64c-2.671875 0-5.171875 1.335938-6.65625 3.558594l-29.625 44.441406h-75.71875c-13.253906 0-24 10.746094-24 24v160c0 13.253907 10.746094 24 24 24h28.6875l-54.34375 54.34375c-3.121094 3.125-3.121094 8.1875 0 11.3125 88.03125 87.796876 228.535156 93.832032 323.769531 13.90625 95.234375-79.925781 113.664063-219.351562 42.464844-321.273437-2.539063-3.613281-7.523438-4.484375-11.136719-1.953125zm-41.441406 51.664062c4.417968 0 8 3.582032 8 8v160c0 4.417969-3.582032 8-8 8h-220.6875l31.800781-31.800781c28.609375 22.9375 69.898437 20.671875 95.828125-5.257812 25.929688-25.929688 28.195312-67.21875 5.257812-95.828125l43.113282-43.113282zm-200 88c-.046875-21.203124 11.90625-40.609374 30.867187-50.101562 18.957031-9.492188 41.65625-7.441406 58.605469 5.300781l-11.449219 11.449219c-15.835937-10.515625-36.886719-8.410156-50.328125 5.03125s-15.542968 34.492188-5.03125 50.328125l-11.464844 11.464844c-7.265624-9.648438-11.199218-21.394531-11.199218-33.472657zm112 0c.050781 21.203126-11.90625 40.609376-30.863282 50.101563-18.960937 9.492187-41.660156 7.441406-58.609374-5.300781l11.449218-11.449219c15.835938 10.511719 36.886719 8.410156 50.328125-5.03125 13.441407-13.441406 15.546875-34.492187 5.03125-50.328125l11.464844-11.464844c7.269531 9.644532 11.199219 21.394532 11.199219 33.472656zm-80 0c0-13.253906 10.746094-24 24-24 3.5625.011719 7.078125.832032 10.28125 2.398438l-31.878906 31.882812c-1.566407-3.203124-2.386719-6.71875-2.402344-10.28125zm48 0c0 13.253907-10.746094 24-24 24-3.5625-.015624-7.078125-.835937-10.28125-2.402343l31.882812-31.878907c1.566406 3.203126 2.386719 6.71875 2.398438 10.28125zm20.886718-56.199218c-28.609374-22.9375-69.898437-20.671875-95.828124 5.257812-25.929688 25.929688-28.195313 67.21875-5.257813 95.828125l-43.113281 43.113281h-4.6875v-176h180.6875zm-72.605468-79.800782h55.4375l21.328125 32h-98.09375zm-116.28125 224c-4.417969 0-8-3.582031-8-8v-160c0-4.417968 3.582031-8 8-8h24v176zm0 0" fill="url(#a)"/></svg>